<svg width="39" height="14" viewBox="0 0 39 14" fill="none" xmlns="http://www.w3.org/2000/svg">
<path d="M33.3956 7.00003L38.7026 12.2783C39.0991 12.6722 39.0991 13.3108 38.7026 13.7046C38.3062 14.0985 37.6634 14.0985 37.2669 13.7046L31.2938 7.76385C31.0825 7.55398 30.9874 7.2748 31.0013 7.00003C30.9874 6.72521 31.0825 6.44606 31.2938 6.23616L37.2669 0.295424C37.6634 -0.0984735 38.3062 -0.0984735 38.7026 0.295424C39.0991 0.689322 39.0991 1.32789 38.7026 1.72169L33.3956 7.00003Z" fill="white"/>
<path d="M22.3956 7.00003L27.7026 12.2783C28.0991 12.6722 28.0991 13.3108 27.7026 13.7046C27.3062 14.0985 26.6634 14.0985 26.2669 13.7046L20.2938 7.76385C20.0825 7.55398 19.9874 7.2748 20.0013 7.00003C19.9874 6.72521 20.0825 6.44606 20.2938 6.23616L26.2669 0.295424C26.6634 -0.0984735 27.3062 -0.0984735 27.7026 0.295424C28.0991 0.689322 28.0991 1.32789 27.7026 1.72169L22.3956 7.00003Z" fill="#C9BDD8"/>
<path d="M12.3956 7.00003L17.7026 12.2783C18.0991 12.6722 18.0991 13.3108 17.7026 13.7046C17.3062 14.0985 16.6634 14.0985 16.2669 13.7046L10.2938 7.76385C10.0825 7.55398 9.98743 7.2748 10.0013 7.00003C9.98743 6.72521 10.0825 6.44606 10.2938 6.23616L16.2669 0.295424C16.6634 -0.0984735 17.3062 -0.0984735 17.7026 0.295424C18.0991 0.689322 18.0991 1.32789 17.7026 1.72169L12.3956 7.00003Z" fill="#625373"/>
<path d="M2.39558 7.00003L7.70265 12.2783C8.09911 12.6722 8.09911 13.3108 7.70265 13.7046C7.30624 14.0985 6.66344 14.0985 6.26693 13.7046L0.293766 7.76385C0.0824995 7.55398 -0.0125713 7.2748 0.00132799 7.00003C-0.0125713 6.72521 0.0824995 6.44606 0.293766 6.23616L6.26693 0.295424C6.66342 -0.0984735 7.30616 -0.0984735 7.70265 0.295424C8.09913 0.689322 8.09911 1.32789 7.70265 1.72169L2.39558 7.00003Z" fill="#281A37"/>
</svg>
