<svg width="16" height="16" viewBox="0 0 16 16" fill="none" xmlns="http://www.w3.org/2000/svg">
<path d="M15.3122 10.791C15.2299 10.7158 15.1092 10.701 15.0108 10.753C12.1958 12.246 8.7412 11.2529 7.14721 8.49193C5.55322 5.73098 6.42008 2.24309 9.12076 0.551319C9.21516 0.492295 9.26227 0.380115 9.23827 0.271491C9.21445 0.162689 9.12485 0.0805535 9.01445 0.0665087C7.26454 -0.158385 5.53171 0.189534 4.00225 1.07275C2.15226 2.14033 0.828851 3.86517 0.275951 5.92868C-0.27695 7.99219 0.00678946 10.1474 1.07508 11.9976C2.14319 13.8478 3.86785 15.1712 5.93136 15.7241C6.62044 15.9086 7.31965 16 8.01442 16C9.40023 16 10.7681 15.6366 12.0003 14.9251C13.5294 14.0423 14.6974 12.7153 15.3776 11.0875C15.4206 10.9848 15.3943 10.8662 15.3122 10.791Z" fill="#180C26"/>
</svg>
