<svg width="25" height="25" viewBox="0 0 25 25" fill="none" xmlns="http://www.w3.org/2000/svg">
<path d="M17.0565 10.7966C16.8332 11.1439 16.61 11.4969 16.3924 11.8442C15.5609 13.1608 14.7629 14.4943 13.9537 15.8221C13.697 16.2423 13.3901 16.6232 12.9883 16.9202C11.7606 17.8278 10.4938 16.909 10.3487 15.8333C10.2483 15.1386 10.1869 14.4382 10.1757 13.7379C10.1701 12.9255 10.1757 12.1132 10.1757 11.3064C10.1757 11.1887 10.1646 11.0711 10.159 10.9534C10.1032 10.9534 10.0976 10.9983 10.0809 11.0207C8.55181 13.5586 6.94463 16.0518 5.38209 18.5673C5.28723 18.7186 5.19794 18.8755 5.09749 19.0267C5.05285 19.094 5.05285 19.1388 5.11423 19.206C6.69351 20.8476 8.56855 21.9569 10.8342 22.3042C13.5854 22.73 16.0855 22.1082 18.3232 20.4386C18.5967 20.2369 18.8422 20.0016 19.1101 19.7887C19.4393 19.531 19.8021 19.3741 20.2373 19.4749C20.2987 19.4862 20.3489 19.5142 20.3936 19.5534C20.494 19.6542 20.5945 19.7439 20.7061 19.8335C21.0409 20.08 21.0577 20.4106 20.9684 20.7747C20.8568 21.2061 20.561 21.5031 20.2317 21.772C18.7139 23.0382 17.0062 23.9402 15.0642 24.3492C11.3476 25.1391 7.96028 24.3884 4.97472 22.0297C2.69788 20.2313 1.25254 17.8782 0.616364 15.0321C0.287116 13.5586 0.253633 12.0683 0.476852 10.5725C1.15767 5.92232 4.46131 2.3983 8.16117 0.986452C9.3554 0.527041 10.611 0.274926 11.8889 0.235708C13.2841 0.190887 14.6513 0.314143 15.9906 0.745542C17.7763 1.3114 19.4058 2.28625 20.7507 3.59165C22.609 5.39568 23.7809 7.57508 24.272 10.1243C24.512 11.368 24.5678 12.623 24.3669 13.8724C24.1269 15.3795 22.9104 16.8754 21.2641 17.1891C19.6346 17.5028 18.1168 16.6569 17.4583 15.0601C17.1736 14.371 17.0955 13.6483 17.0955 12.9143C17.0955 12.2364 17.0955 11.5641 17.0955 10.8862C17.0955 10.8638 17.0955 10.8414 17.0899 10.819L17.0565 10.7966Z" fill="#FEFEFE"/>
</svg>
