<svg width="15" height="15" viewBox="0 0 15 15" fill="none" xmlns="http://www.w3.org/2000/svg">
<path d="M7.5 11.7978C5.13026 11.7978 3.2023 9.86983 3.2023 7.50009C3.2023 5.13035 5.13026 3.20239 7.5 3.20239C9.86957 3.20239 11.7977 5.13035 11.7977 7.50009C11.7977 8.27551 11.5889 9.03533 11.1939 9.69784C10.4218 10.993 9.00636 11.7978 7.5 11.7978Z" fill="#F5EAF9"/>
<path d="M7.5 2.55444C7.31882 2.55444 7.17178 2.40739 7.17178 2.22622V0.443331C7.17178 0.262154 7.31882 0.115112 7.5 0.115112C7.68118 0.115112 7.82822 0.262154 7.82822 0.443331V2.22622C7.82822 2.40739 7.68118 2.55444 7.5 2.55444Z" fill="#F5EAF9"/>
<path d="M7.5 14.885C7.31882 14.885 7.17178 14.7379 7.17178 14.5567V12.774C7.17178 12.5928 7.31882 12.4458 7.5 12.4458C7.68118 12.4458 7.82822 12.5928 7.82822 12.774V14.5567C7.82822 14.7379 7.68118 14.885 7.5 14.885Z" fill="#F5EAF9"/>
<path d="M2.22618 7.82832H0.443293C0.262116 7.82832 0.115074 7.68128 0.115074 7.5001C0.115074 7.31892 0.262116 7.17188 0.443293 7.17188H2.22618C2.40735 7.17188 2.5544 7.31892 2.5544 7.5001C2.5544 7.68128 2.40735 7.82832 2.22618 7.82832Z" fill="#F5EAF9"/>
<path d="M14.5567 7.82832H12.774C12.5928 7.82832 12.4458 7.68128 12.4458 7.5001C12.4458 7.31892 12.5928 7.17188 12.774 7.17188H14.5567C14.7379 7.17188 14.8849 7.31892 14.8849 7.5001C14.8849 7.68128 14.7379 7.82832 14.5567 7.82832Z" fill="#F5EAF9"/>
<path d="M11.2292 4.09909C11.1452 4.09909 11.0613 4.06709 10.9972 4.00292C10.869 3.87475 10.869 3.66699 10.9972 3.53882L12.2579 2.27813C12.386 2.14996 12.5938 2.14996 12.722 2.27813C12.8501 2.4063 12.8501 2.61406 12.722 2.74223L11.4613 4.00292C11.3971 4.06709 11.3131 4.09909 11.2292 4.09909Z" fill="#F5EAF9"/>
<path d="M2.51009 12.818C2.42606 12.818 2.34204 12.786 2.27803 12.7218C2.14987 12.5936 2.14987 12.3859 2.27803 12.2577L3.53872 10.997C3.66689 10.8688 3.87482 10.8688 4.00282 10.997C4.13099 11.1252 4.13099 11.3329 4.00282 11.4611L2.74214 12.7218C2.67813 12.786 2.59411 12.818 2.51009 12.818Z" fill="#F5EAF9"/>
<path d="M3.77077 4.09909C3.68675 4.09909 3.60273 4.06709 3.53872 4.00292L2.27803 2.74223C2.14987 2.61406 2.14987 2.4063 2.27803 2.27813C2.40604 2.14996 2.61413 2.14996 2.74214 2.27813L4.00282 3.53882C4.13099 3.66699 4.13099 3.87475 4.00282 4.00292C3.93882 4.06709 3.8548 4.09909 3.77077 4.09909Z" fill="#F5EAF9"/>
<path d="M12.4897 12.818C12.4057 12.818 12.3219 12.786 12.2577 12.7218L10.997 11.4611C10.8688 11.3329 10.8688 11.1252 10.997 10.997C11.1252 10.8688 11.3329 10.8688 11.4611 10.997L12.7218 12.2577C12.85 12.3859 12.85 12.5936 12.7218 12.7218C12.6578 12.786 12.5738 12.818 12.4897 12.818Z" fill="#F5EAF9"/>
<path d="M5.48194 2.95603C5.35312 2.95603 5.23086 2.87971 5.17851 2.75335L4.4963 1.10618C4.42689 0.938627 4.50648 0.746783 4.67387 0.677364C4.84159 0.60811 5.03327 0.687539 5.10269 0.854931L5.78505 2.5021C5.85447 2.66965 5.77488 2.8615 5.60749 2.93092C5.5663 2.94782 5.52379 2.95603 5.48194 2.95603Z" fill="#F5EAF9"/>
<path d="M10.2006 14.348C10.0718 14.348 9.94965 14.2715 9.89714 14.1453L9.21493 12.4981C9.14551 12.3306 9.22511 12.1387 9.3925 12.0693C9.56038 12.0001 9.7519 12.0796 9.82132 12.2469L10.5035 13.8939C10.5729 14.0614 10.4934 14.2533 10.326 14.3227C10.2849 14.3398 10.2424 14.348 10.2006 14.348Z" fill="#F5EAF9"/>
<path d="M0.980587 10.5288C0.851761 10.5288 0.729499 10.4524 0.677149 10.3262C0.60773 10.1586 0.687323 9.96676 0.854879 9.89734L2.50205 9.21513C2.6696 9.14571 2.86145 9.22547 2.93086 9.3927C3.00028 9.56026 2.92069 9.7521 2.75313 9.82152L1.10597 10.5037C1.06494 10.5206 1.02243 10.5288 0.980587 10.5288Z" fill="#F5EAF9"/>
<path d="M12.3726 5.8102C12.2437 5.8102 12.1216 5.73388 12.0691 5.60752C11.9997 5.43996 12.0793 5.24812 12.2467 5.1787L13.8937 4.49633C14.0613 4.42708 14.2529 4.50651 14.3225 4.6739C14.3919 4.84146 14.3123 5.0333 14.145 5.10272L12.4981 5.78509C12.4571 5.80199 12.4144 5.8102 12.3726 5.8102Z" fill="#F5EAF9"/>
<path d="M9.51804 2.95601C9.4762 2.95601 9.43369 2.94797 9.3925 2.9309C9.22494 2.86165 9.14551 2.66964 9.21493 2.50208L9.89714 0.854917C9.96656 0.687361 10.1577 0.607768 10.326 0.677187C10.4935 0.746441 10.5729 0.938449 10.5035 1.106L9.82132 2.75317C9.76897 2.8797 9.64687 2.95601 9.51804 2.95601Z" fill="#F5EAF9"/>
<path d="M4.79925 14.3479C4.7574 14.3479 4.71489 14.3397 4.6737 14.3228C4.50615 14.2534 4.42672 14.0614 4.49614 13.894L5.1785 12.247C5.24776 12.0796 5.4396 12.0002 5.60732 12.0695C5.77488 12.1389 5.85431 12.3309 5.78489 12.4983L5.10252 14.1453C5.05033 14.2715 4.92824 14.3479 4.79925 14.3479Z" fill="#F5EAF9"/>
<path d="M2.62743 5.81021C2.58558 5.81021 2.54307 5.80217 2.50188 5.7851L0.854717 5.10273C0.687326 5.03332 0.607733 4.84131 0.677151 4.67392C0.746405 4.50652 0.938085 4.42677 1.10597 4.49635L2.75313 5.17872C2.92053 5.24813 3.00012 5.44014 2.9307 5.60753C2.87851 5.7339 2.75625 5.81021 2.62743 5.81021Z" fill="#F5EAF9"/>
<path d="M14.0194 10.5288C13.9776 10.5288 13.9351 10.5206 13.8939 10.5037L12.2469 9.82154C12.0793 9.75212 11.9999 9.56011 12.0693 9.39272C12.1387 9.22533 12.3301 9.14573 12.4981 9.21515L14.1451 9.89735C14.3127 9.96677 14.3921 10.1588 14.3227 10.3262C14.2703 10.4524 14.1482 10.5288 14.0194 10.5288Z" fill="#F5EAF9"/>
</svg>
